<svg xmlns="http://www.w3.org/2000/svg" viewBox="0 0 135 90"><title>logo_kde</title><path fill="none" d="M0 0h135v90H0z"/><path fill="#fff" d="M0 0h135v75.54H0z"/><path d="M24.1 13.8h11V34l-.07.13h.13l7-20.33H54l-9.34 22.78 10.53 25.16H43.37l-8.21-21.39H35l.07.13v21.25h-11V13.8zm33.1 0h14.3c10.26 0 13.51 2.25 13.51 18v12c0 15.76-3.24 17.94-13.51 17.94H57.2V13.8zm11 39.33h2.91c2.38 0 2.91-1.06 2.91-4.63V26.64c0-3.58-.53-4.63-2.91-4.63H68.2v31.12zM89 13.8h21.12v8.61H100v10.53h9.4v8.21H100v12h10.9v8.61H89V13.8z"/><path d="M5.47 81.79h.59l2.46-2.63h.89l-2.76 2.92 3.08 3.11h-.92L6.05 82.4h-.59v2.79h-.68v-6h.68v2.63zm6.96-.88c1.57 0 1.87.38 1.87 2.16s-.31 2.15-1.87 2.15-1.87-.38-1.87-2.15.3-2.16 1.87-2.16zm0 3.8c1.13 0 1.21-.18 1.21-1.64s-.08-1.65-1.21-1.65-1.21.18-1.21 1.65.07 1.64 1.21 1.64zm3.32-5.56h.63v2.35a1.32 1.32 0 0 1 1.36-.59c1.45 0 1.65.84 1.65 2.16s-.18 2.15-1.65 2.15a1.4 1.4 0 0 1-1.36-.56v.5h-.63v-6zm1.83 2.27c-1.11 0-1.18.44-1.18 1.65 0 1.37.25 1.64 1.18 1.64 1.12 0 1.17-.48 1.17-1.64-.01-1.38-.16-1.64-1.17-1.64zm6.12 3.76v-.43a1.42 1.42 0 0 1-1.39.5c-.95 0-1.61-.18-1.61-1.28s.6-1.33 1.65-1.33c.42 0 1.24 0 1.33.43v-.78c0-.77-.41-.84-1.12-.84-.5 0-1.11 0-1.1.58v.14h-.66v-.09c0-1.08.75-1.16 1.69-1.15s1.84.1 1.83 1.39v2.88h-.62zm0-1.25c0-.8-.47-.79-1.28-.79s-1.06 0-1.06.73.33.84 1.06.84 1.27-.01 1.27-.78zm3.99 1.55c-.22.8-.41 1.57-1.42 1.57a1.55 1.55 0 0 1-.29 0v-.49h.23c.66 0 .73-.88.88-1.37h-.22L25.33 81H26l1.3 3.75.95-3.75h.66zm5.07-.3v-.43a1.42 1.42 0 0 1-1.39.5c-.95 0-1.61-.18-1.61-1.28s.6-1.33 1.65-1.33c.42 0 1.24 0 1.33.43v-.78c0-.77-.41-.84-1.12-.84-.5 0-1.11 0-1.1.58v.14h-.66v-.09c0-1.08.75-1.16 1.69-1.15s1.84.1 1.83 1.39v2.88h-.63zm0-1.25c0-.8-.47-.79-1.28-.79s-1.06 0-1.06.73.33.84 1.06.84 1.26-.01 1.26-.78zm5.54-1.87h-.66v-.16c0-.43-.32-.43-1-.43s-1.18 0-1.18.51c0 .76.21.7.87.73 1.08.06 2.07-.1 2.07 1.27 0 1.19-.82 1.24-1.76 1.24s-1.87 0-1.87-1v-.39h.66v.33c0 .4.25.49 1.21.49.43 0 1.1.1 1.1-.65s-.33-.64-1.1-.69-1.84 0-1.84-1.16.7-1.25 1.84-1.25c.74 0 1.65 0 1.65 1v.16zm2.1-.59a1.27 1.27 0 0 1 1.3-.56c1.08 0 1.61.29 1.59 1.46v2.8h-.63v-2.85c0-.77-.3-.9-1-.9-1 0-1.26.32-1.26 1.29v2.46h-.63v-6h.63v2.32zm5.13-1.62h-.63v-.7h.63v.7zm0 5.33h-.63V81h.63v4.22zm4.8-6.03h2.93c.73 0 2.06.1 2.06 2.32v1.44a2 2 0 0 1-1.9 2.27h-3.09v-6zm2.93 5.42c1.21 0 1.37-.71 1.38-1.78v-1.58a1.32 1.32 0 0 0-1.27-1.45H51v4.82h2.25zm7.05-.67v.15c0 1.12-.86 1.17-1.8 1.17-1.65 0-1.9-.55-1.9-2.15s.39-2.16 1.9-2.16 1.8.31 1.8 1.87v.43h-3c0 1.33.1 1.5 1.24 1.5.87 0 1.15-.06 1.15-.65v-.16h.65zm-.66-1.21c0-1.2-.18-1.27-1.14-1.27-1.15 0-1.19.3-1.24 1.27h2.38zm5.46-.63h-.66v-.16c0-.43-.32-.43-1-.43s-1.18 0-1.18.51c0 .76.21.7.87.73 1.08.06 2.07-.1 2.07 1.27 0 1.19-.82 1.24-1.76 1.24s-1.87 0-1.87-1v-.39h.66v.33c0 .4.25.49 1.21.49.43 0 1.1.1 1.1-.65s-.33-.64-1.1-.69-1.84 0-1.84-1.16.7-1.25 1.84-1.25c.74 0 1.65 0 1.65 1v.16zm2.09-2.21h-.63v-.7h.63v.7zm0 5.33h-.63V81h.63v4.22zm5.11.5c0 1.12-.84 1.37-1.86 1.37s-1.75-.15-1.69-1.37h.63c0 .81.39.86 1.05.86s1.21-.08 1.22-.91v-1a1.32 1.32 0 0 1-1.36.57c-1.37 0-1.66-.71-1.66-2.15s.22-2.16 1.66-2.16a1.33 1.33 0 0 1 1.36.59V81h.63v4.72zm-.63-2.6c0-1.17-.08-1.65-1.22-1.65s-1.16.54-1.16 1.65-.07 1.64 1.16 1.64 1.21-.72 1.21-1.65zm2.82-1.61a1.27 1.27 0 0 1 1.3-.56c1.08 0 1.61.29 1.59 1.46v2.8h-.63v-2.85c0-.77-.3-.9-1-.9-1 0-1.26.32-1.26 1.29v2.46h-.63V81h.63v.51zm8.22.33h3.05v.56h-3.05v2.21h3.19v.6H82v-6h3.87v.6h-3.19v2zm5.16-.33a1.27 1.27 0 0 1 1.3-.56c1.08 0 1.61.29 1.59 1.46v2.8h-.63v-2.85c0-.77-.3-.9-1-.9-1 0-1.26.32-1.26 1.29v2.46h-.63V81h.63v.51zm8.04 4.21c0 1.12-.84 1.37-1.86 1.37s-1.75-.15-1.69-1.37H93c0 .81.39.86 1.05.86s1.21-.08 1.22-.91v-1a1.32 1.32 0 0 1-1.36.57c-1.37 0-1.66-.71-1.66-2.15s.22-2.16 1.66-2.16a1.33 1.33 0 0 1 1.36.59V81h.63v4.72zm-.63-2.6c0-1.17-.08-1.65-1.22-1.65s-1.16.54-1.16 1.65-.07 1.64 1.16 1.64 1.21-.72 1.21-1.65zm2.81-3.23h-.63v-.7h.63v.7zm0 5.33h-.63V81h.63v4.22zm2.22-3.71a1.27 1.27 0 0 1 1.3-.56c1.08 0 1.61.29 1.59 1.46v2.8h-.63v-2.85c0-.77-.3-.9-1-.9-1 0-1.26.32-1.26 1.29v2.46h-.63V81h.63v.51zm7.91 2.43v.15c0 1.12-.86 1.17-1.8 1.17-1.65 0-1.9-.55-1.9-2.15s.39-2.16 1.9-2.16 1.8.31 1.8 1.87v.43h-3c0 1.33.1 1.5 1.24 1.5.87 0 1.15-.06 1.15-.65v-.16h.65zm-.66-1.21c0-1.2-.18-1.27-1.14-1.27-1.15 0-1.19.3-1.24 1.27h2.38zm5.68 1.21v.15c0 1.12-.86 1.17-1.8 1.17-1.65 0-1.9-.55-1.9-2.15s.39-2.16 1.9-2.16 1.8.31 1.8 1.87v.43h-3c0 1.33.1 1.5 1.24 1.5.87 0 1.15-.06 1.15-.65v-.16h.65zm-.66-1.21c0-1.2-.18-1.27-1.14-1.27-1.15 0-1.19.3-1.24 1.27h2.38zm2.65-1.69v.52a1.21 1.21 0 0 1 1.2-.59 1 1 0 0 1 1.17 1.19v.31H117v-.28a.58.58 0 0 0-.71-.7.91.91 0 0 0-1 1.12v2.63h-.63V81h.62zm4.13-1.15h-.63v-.7h.63v.7zm0 5.33h-.63V81h.63v4.22zm2.22-3.71a1.27 1.27 0 0 1 1.3-.56c1.08 0 1.61.29 1.59 1.46v2.8h-.63v-2.85c0-.77-.3-.9-1-.9-1 0-1.26.32-1.26 1.29v2.46H121V81h.63v.51zm8.04 4.21c0 1.12-.84 1.37-1.86 1.37s-1.75-.15-1.69-1.37h.63c0 .81.39.86 1.05.86s1.21-.08 1.22-.91v-1a1.32 1.32 0 0 1-1.36.57c-1.37 0-1.66-.71-1.66-2.15s.22-2.16 1.66-2.16a1.33 1.33 0 0 1 1.36.59V81h.63v4.72zm-.63-2.6c0-1.17-.08-1.65-1.22-1.65s-1.16.54-1.16 1.65-.07 1.64 1.16 1.64S129 84 129 83.07z" fill="#fff"/></svg>