<svg id="icn_c" xmlns="http://www.w3.org/2000/svg" viewBox="0 0 148 148"><title>icn_c</title><path d="M873,72a74,74,0,1,1-74,74A74,74,0,0,1,873,72Z" transform="translate(-799 -72)" fill="#00933c" fill-rule="evenodd"/><path d="M852.1,129.6c0-11.6,4.4-17.6,16.7-17.6H875c14.5,0,18.9,4,18.9,12.4v13.2h-16v-9.5c0-2.2-1.5-3.1-4.2-3.1-2.9,0-4.4.9-4.4,3.1v41.8c0,2.2,1.5,3.1,4.3,3.1s4.3-.9,4.3-3.1V158.5h16v10.7C893.9,182,889,186,875,186h-6.2c-12.3,0-16.7-6.1-16.7-15.5V129.6Z" transform="translate(-799 -72)" fill="#fff"/></svg>