<svg id="icn_b" xmlns="http://www.w3.org/2000/svg" viewBox="0 0 148 148"><title>icn_b</title><path d="M541,248a74,74,0,1,1-74,74A74,74,0,0,1,541,248Z" transform="translate(-467 -248)" fill="#ee352e" fill-rule="evenodd"/><path d="M520,287.6h24.5c14.4,0,18.1,3,18.1,17.5,0,9.5-.7,15.5-10.8,17.2v0.2c10.3,0.8,12,8.1,12,16.9,0,15.2-3.5,20.6-16.6,20.6H520V287.6Zm16.6,29.5h4c4.8,0,5.4-1.6,5.4-6.4v-4.4c0-4.7-.6-6.3-5.4-6.3h-4v17.1Zm0,30.5h4.9c4.1,0,5.1-1.2,5.1-6.7v-5.4c0-5.4-1.2-6.6-5.1-6.6h-4.9v18.7Z" transform="translate(-467 -248)" fill="#fff"/></svg>