<svg id="logo_wht" xmlns="http://www.w3.org/2000/svg" viewBox="0 0 135 90"><title>logo_kde</title><rect width="135" height="90" fill="none"/><rect width="135" height="75.54" fill="#fff"/><path d="M510.1,86.8h11V107l-0.07.13h0.13l7-20.33H540l-9.34,22.78,10.53,25.16H529.37l-8.21-21.39H521l0.07,0.13v21.25h-11V86.8Z" transform="translate(-486 -73)"/><path d="M543.2,86.8h14.3c10.26,0,13.51,2.25,13.51,18v12c0,15.76-3.24,17.94-13.51,17.94H543.2V86.8Zm11,39.33h2.91c2.38,0,2.91-1.06,2.91-4.63V99.64c0-3.58-.53-4.63-2.91-4.63H554.2v31.12Z" transform="translate(-486 -73)"/><path d="M575,86.8h21.12v8.61H586v10.53h9.4v8.21H586v12H596.9v8.61H575V86.8Z" transform="translate(-486 -73)"/><path d="M491.47,154.79h0.59l2.46-2.63h0.89l-2.76,2.92,3.08,3.11h-0.92l-2.76-2.79h-0.59v2.79h-0.68v-6h0.68v2.63Z" transform="translate(-486 -73)" fill="#fff"/><path d="M498.43,153.91c1.57,0,1.87.38,1.87,2.16s-0.31,2.15-1.87,2.15-1.87-.38-1.87-2.15S496.86,153.91,498.43,153.91Zm0,3.8c1.13,0,1.21-.18,1.21-1.64s-0.08-1.65-1.21-1.65-1.21.18-1.21,1.65S497.29,157.71,498.43,157.71Z" transform="translate(-486 -73)" fill="#fff"/><path d="M501.75,152.15h0.63v2.35h0a1.32,1.32,0,0,1,1.36-.59c1.45,0,1.65.84,1.65,2.16s-0.18,2.15-1.65,2.15a1.4,1.4,0,0,1-1.36-.56l0,0v0.5h-0.63v-6Zm1.83,2.27c-1.11,0-1.18.44-1.18,1.65,0,1.37.25,1.64,1.18,1.64,1.12,0,1.17-.48,1.17-1.64C504.74,154.69,504.59,154.43,503.58,154.43Z" transform="translate(-486 -73)" fill="#fff"/><path d="M509.7,158.18v-0.43l0,0a1.42,1.42,0,0,1-1.39.5c-0.95,0-1.61-.18-1.61-1.28s0.6-1.33,1.65-1.33c0.42,0,1.24,0,1.33.43h0v-0.78c0-.77-0.41-0.84-1.12-0.84-0.5,0-1.11,0-1.1.58v0.14h-0.66v-0.09c0-1.08.75-1.16,1.69-1.15s1.84,0.1,1.83,1.39v2.88H509.7Zm0-1.25c0-.8-0.47-0.79-1.28-0.79s-1.06,0-1.06.73,0.33,0.84,1.06.84S509.69,157.7,509.69,156.93Z" transform="translate(-486 -73)" fill="#fff"/><path d="M513.69,158.48c-0.22.8-.41,1.57-1.42,1.57a1.55,1.55,0,0,1-.29,0v-0.49l0.23,0c0.66,0,.73-0.88.88-1.37h-0.22L511.33,154H512l1.3,3.75h0l0.95-3.75h0.66Z" transform="translate(-486 -73)" fill="#fff"/><path d="M518.76,158.18v-0.43l0,0a1.42,1.42,0,0,1-1.39.5c-0.95,0-1.61-.18-1.61-1.28s0.6-1.33,1.65-1.33c0.42,0,1.24,0,1.33.43h0v-0.78c0-.77-0.41-0.84-1.12-0.84-0.5,0-1.11,0-1.1.58v0.14h-0.66v-0.09c0-1.08.75-1.16,1.69-1.15s1.84,0.1,1.83,1.39v2.88h-0.63Zm0-1.25c0-.8-0.47-0.79-1.28-0.79s-1.06,0-1.06.73,0.33,0.84,1.06.84S518.74,157.7,518.74,156.93Z" transform="translate(-486 -73)" fill="#fff"/><path d="M524.3,155.06h-0.66V154.9c0-.43-0.32-0.43-1-0.43s-1.18,0-1.18.51c0,0.76.21,0.7,0.87,0.73,1.08,0.06,2.07-.1,2.07,1.27,0,1.19-.82,1.24-1.76,1.24s-1.87,0-1.87-1v-0.39h0.66v0.33c0,0.4.25,0.49,1.21,0.49,0.43,0,1.1.1,1.1-.65s-0.33-.64-1.1-0.69-1.84,0-1.84-1.16,0.7-1.25,1.84-1.25c0.74,0,1.65,0,1.65,1v0.16Z" transform="translate(-486 -73)" fill="#fff"/><path d="M526.4,154.47h0a1.27,1.27,0,0,1,1.3-.56c1.08,0,1.61.29,1.59,1.46v2.8h-0.63v-2.85c0-.77-0.3-0.9-1-0.9-1,0-1.26.32-1.26,1.29v2.46h-0.63v-6h0.63v2.32Z" transform="translate(-486 -73)" fill="#fff"/><path d="M531.53,152.85H530.9v-0.7h0.63v0.7Zm0,5.33H530.9V154h0.63v4.22Z" transform="translate(-486 -73)" fill="#fff"/><path d="M536.33,152.15h2.93c0.73,0,2.06.1,2.06,2.32v1.44a2,2,0,0,1-1.9,2.27h-3.09v-6Zm2.93,5.42c1.21,0,1.37-.71,1.38-1.78v-1.58a1.32,1.32,0,0,0-1.27-1.45H537v4.82h2.25Z" transform="translate(-486 -73)" fill="#fff"/><path d="M546.31,156.9v0.15c0,1.12-.86,1.17-1.8,1.17-1.65,0-1.9-.55-1.9-2.15s0.39-2.16,1.9-2.16,1.8,0.31,1.8,1.87v0.43h-3c0,1.33.1,1.5,1.24,1.5,0.87,0,1.15-.06,1.15-0.65V156.9h0.65Zm-0.66-1.21c0-1.2-.18-1.27-1.14-1.27-1.15,0-1.19.3-1.24,1.27h2.38Z" transform="translate(-486 -73)" fill="#fff"/><path d="M551.11,155.06h-0.66V154.9c0-.43-0.32-0.43-1-0.43s-1.18,0-1.18.51c0,0.76.21,0.7,0.87,0.73,1.08,0.06,2.07-.1,2.07,1.27,0,1.19-.82,1.24-1.76,1.24s-1.87,0-1.87-1v-0.39h0.66v0.33c0,0.4.25,0.49,1.21,0.49,0.43,0,1.1.1,1.1-.65s-0.33-.64-1.1-0.69-1.84,0-1.84-1.16,0.7-1.25,1.84-1.25c0.74,0,1.65,0,1.65,1v0.16Z" transform="translate(-486 -73)" fill="#fff"/><path d="M553.2,152.85h-0.63v-0.7h0.63v0.7Zm0,5.33h-0.63V154h0.63v4.22Z" transform="translate(-486 -73)" fill="#fff"/><path d="M558.31,158.68c0,1.12-.84,1.37-1.86,1.37s-1.75-.15-1.69-1.37h0.63c0,0.81.39,0.86,1.05,0.86s1.21-.08,1.22-0.91v-1h0a1.32,1.32,0,0,1-1.36.57c-1.37,0-1.66-.71-1.66-2.15s0.22-2.16,1.66-2.16a1.33,1.33,0,0,1,1.36.59h0V154h0.63v4.72Zm-0.63-2.6c0-1.17-.08-1.65-1.22-1.65s-1.16.54-1.16,1.65-0.07,1.64,1.16,1.64S557.67,157,557.67,156.07Z" transform="translate(-486 -73)" fill="#fff"/><path d="M560.5,154.47h0a1.27,1.27,0,0,1,1.3-.56c1.08,0,1.61.29,1.59,1.46v2.8h-0.63v-2.85c0-.77-0.3-0.9-1-0.9-1,0-1.26.32-1.26,1.29v2.46h-0.63V154h0.63v0.51Z" transform="translate(-486 -73)" fill="#fff"/><path d="M568.72,154.8h3.05v0.56h-3.05v2.21h3.19v0.6H568v-6h3.87v0.6h-3.19v2Z" transform="translate(-486 -73)" fill="#fff"/><path d="M573.88,154.47h0a1.27,1.27,0,0,1,1.3-.56c1.08,0,1.61.29,1.59,1.46v2.8h-0.63v-2.85c0-.77-0.3-0.9-1-0.9-1,0-1.26.32-1.26,1.29v2.46h-0.63V154h0.63v0.51Z" transform="translate(-486 -73)" fill="#fff"/><path d="M581.92,158.68c0,1.12-.84,1.37-1.86,1.37s-1.75-.15-1.69-1.37H579c0,0.81.39,0.86,1.05,0.86s1.21-.08,1.22-0.91v-1h0a1.32,1.32,0,0,1-1.36.57c-1.37,0-1.66-.71-1.66-2.15s0.22-2.16,1.66-2.16a1.33,1.33,0,0,1,1.36.59h0V154h0.63v4.72Zm-0.63-2.6c0-1.17-.08-1.65-1.22-1.65s-1.16.54-1.16,1.65-0.07,1.64,1.16,1.64S581.28,157,581.28,156.07Z" transform="translate(-486 -73)" fill="#fff"/><path d="M584.1,152.85h-0.63v-0.7h0.63v0.7Zm0,5.33h-0.63V154h0.63v4.22Z" transform="translate(-486 -73)" fill="#fff"/><path d="M586.32,154.47h0a1.27,1.27,0,0,1,1.3-.56c1.08,0,1.61.29,1.59,1.46v2.8h-0.63v-2.85c0-.77-0.3-0.9-1-0.9-1,0-1.26.32-1.26,1.29v2.46h-0.63V154h0.63v0.51Z" transform="translate(-486 -73)" fill="#fff"/><path d="M594.23,156.9v0.15c0,1.12-.86,1.17-1.8,1.17-1.65,0-1.9-.55-1.9-2.15s0.39-2.16,1.9-2.16,1.8,0.31,1.8,1.87v0.43h-3c0,1.33.1,1.5,1.24,1.5,0.87,0,1.15-.06,1.15-0.65V156.9h0.65Zm-0.66-1.21c0-1.2-.18-1.27-1.14-1.27-1.15,0-1.19.3-1.24,1.27h2.38Z" transform="translate(-486 -73)" fill="#fff"/><path d="M599.25,156.9v0.15c0,1.12-.86,1.17-1.8,1.17-1.65,0-1.9-.55-1.9-2.15s0.39-2.16,1.9-2.16,1.8,0.31,1.8,1.87v0.43h-3c0,1.33.1,1.5,1.24,1.5,0.87,0,1.15-.06,1.15-0.65V156.9h0.65Zm-0.66-1.21c0-1.2-.18-1.27-1.14-1.27-1.15,0-1.19.3-1.24,1.27h2.38Z" transform="translate(-486 -73)" fill="#fff"/><path d="M601.24,154l0,0.52,0,0a1.21,1.21,0,0,1,1.2-.59,1,1,0,0,1,1.17,1.19v0.31H603v-0.28a0.58,0.58,0,0,0-.71-0.7,0.91,0.91,0,0,0-1,1.12v2.63h-0.63V154h0.62Z" transform="translate(-486 -73)" fill="#fff"/><path d="M605.37,152.85h-0.63v-0.7h0.63v0.7Zm0,5.33h-0.63V154h0.63v4.22Z" transform="translate(-486 -73)" fill="#fff"/><path d="M607.59,154.47h0a1.27,1.27,0,0,1,1.3-.56c1.08,0,1.61.29,1.59,1.46v2.8h-0.63v-2.85c0-.77-0.3-0.9-1-0.9-1,0-1.26.32-1.26,1.29v2.46H607V154h0.63v0.51Z" transform="translate(-486 -73)" fill="#fff"/><path d="M615.63,158.68c0,1.12-.84,1.37-1.86,1.37s-1.75-.15-1.69-1.37h0.63c0,0.81.39,0.86,1.05,0.86s1.21-.08,1.22-0.91v-1h0a1.32,1.32,0,0,1-1.36.57c-1.37,0-1.66-.71-1.66-2.15s0.22-2.16,1.66-2.16a1.33,1.33,0,0,1,1.36.59h0V154h0.63v4.72Zm-0.63-2.6c0-1.17-.08-1.65-1.22-1.65s-1.16.54-1.16,1.65-0.07,1.64,1.16,1.64S615,157,615,156.07Z" transform="translate(-486 -73)" fill="#fff"/></svg>